/* XPM */
static char * cz_xpm[] = {
"20 20 16 1",
" 	c None",
".	c #D0002D",
"+	c #D80026",
"@	c #B60943",
"#	c #861E62",
"$	c #4E3483",
"%	c #0052B6",
"&	c #0652AE",
"*	c #2259A2",
"=	c #567CB0",
"-	c #E66983",
";	c #9DC0EA",
">	c #FFE2E6",
",	c #E5F1FC",
"'	c #F4EFE5",
")	c #EEF1EE",
"       ))))))       ",
"     ))))))))))     ",
"   ))))))))))))))   ",
"  &;))))))))))))))  ",
"  %%;)))))))))))))  ",
" %%%%;))))))))))))) ",
" %%%%%;)))))))))))) ",
"*%%%%%%;))))))))))))",
"%%%%%%%%;)))))))))))",
"%%%%%%%%%;))))))))))",
"%%%%%%%%%#++++++++++",
"%%%%%%%%#+++++++++++",
"&%%%%%%#++++++++++++",
" %%%%%#++++++++++++ ",
" %%%%#+++++++++++++ ",
"  %%#+++++++++++++  ",
"  %#++++++++++++++  ",
"   ++++++++++++++   ",
"     ++++++++++     ",
"       ++++++       "};
