/* XPM */
static char * en_xpm[] = {
"20 20 16 1",
" 	c None",
".	c #310810",
"+	c #031B42",
"@	c #072860",
"#	c #033162",
"$	c #193150",
"%	c #BA2040",
"&	c #962F44",
"*	c #3D5270",
"=	c #CF8292",
"-	c #8B97AD",
";	c #F6BECA",
">	c #E2E5F4",
",	c #FEE5EC",
"'	c #FFFBFF",
")	c #FCFFFD",
"       #-=%=#       ",
"     *##-=%=###     ",
"   *####-=%=####$   ",
"  ;;*###-=%=####->  ",
"  %=>-##-=%=##*;,%  ",
" >,==>-#-=%=#->;%;) ",
" #-,=%;>-=%=-,==,>- ",
"*##->;%=,=%;,%=);*#$",
";;;;;,;;;=%;;;,,;;;;",
"%%%%%%%%%%%%%%%%%%%%",
"%%%%%%%%%%%%%%%%%%%%",
";;;;;,,;;=%;;>,;;;;;",
"*##*>;%=,=%;;%;>-##$",
" #->=%=>-=%;>,==,-# ",
" ;,=%;>*-=%=#-,==,> ",
"  %=,-##-=%=##->;%  ",
"  ;>-###-=%=###*;,  ",
"   *####-=%=####$   ",
"     *##-=%=###     ",
"       #-=%=#       "};
