/* XPM */
static char * ru_xpm[] = {
"20 20 8 1",
" 	c None",
".	c #D5000C",
"+	c #D80027",
"@	c #FF000C",
"#	c #0052B4",
"$	c #0F68D2",
"%	c #D198AE",
"&	c #FFFFFF",
"       &&&&&&       ",
"     &&&&&&&&&&     ",
"   &&&&&&&&&&&&&&   ",
"  &&&&&&&&&&&&&&&&  ",
"  &&&&&&&&&&&&&&&&  ",
" &&&&&&&&&&&&&&&&&& ",
" &&&&&&&&&&&&&&&&&& ",
"####################",
"####################",
"####################",
"####################",
"####################",
"####################",
" ++++++++++++++++++ ",
" ++++++++++++++++++ ",
"  ++++++++++++++++  ",
"  ++++++++++++++++  ",
"   ++++++++++++++   ",
"     ++++++++++     ",
"       ++++++       "};
